<svg width="2048" height="2048" viewBox="0 0 2048 2048" xmlns="http://www.w3.org/2000/svg">
    <rect width="2048" height="2048" fill="#FF00AA" />

    <circle cx="1024" cy="1024" r="512" fill="#FFFFFF" />

    <polygon
            points="
          1024,512
          1467.4050067376326,768
          1467.4050067376326,1280
          1024,1536
          580.5949932623674,1280
          580.5949932623674,768
        "
            fill="#AA00FF"
    />



    <polygon
            points="
          1024,512
          1467.4050067376326,768
          1024,1024
          580.5949932623674,768
        "
            fill="#FF0000"
    />
    <polygon
            points="
          1024,614.4
          1290.0430040425796,768
          1024,921.6
          757.9569959574204,768
        "
            fill="#FFFFFF"
    />
    <polygon
            points="
          1024,716.8
          1112.6810013475265,768
          1024,819.2
          935.3189986524735,768
        "
            fill="#FFFF00"
    />



    <polygon
            points="
          580.5949932623674,1280
          1024,1536
          1024,1024
          580.5949932623674,768
        "
            fill="#00FF00"
    />
    <polygon
            points="
          669.2759946098939,921.6
          935.3189986524735,1075.2
          935.3189986524735,1382.4
          669.2759946098939,1228.8
        "
            fill="#FFFFFF"
    />
    <polygon
            points="
          757.9569959574204,1177.6
          757.9569959574204,1075.2
          846.637997304947,1126.4
          846.637997304947,1228.8
        "
            fill="#00FFFF"
    />



    <polygon
            points="
          1467.4050067376326,1280
          1024,1536
          1024,1024
          1467.4050067376326,768
        "
            fill="#0000FF"
    />
    <polygon
            points="
          1378.7240053901061,921.6
          1112.6810013475265,1075.2
          1112.6810013475265,1382.4
          1378.7240053901061,1228.8
        "
            fill="#FFFFFF"
    />
    <polygon
            points="
          1290.0430040425795,1075.2
          1201.362002695053,1126.4
          1201.362002695053,1228.8
          1290.0430040425795,1177.6
        "
            fill="#FF00FF"
    />
</svg>