<svg width="2048" height="2048" viewBox="512 512 1024 1024" xmlns="http://www.w3.org/2000/svg">
    <defs>
        <!-- Gold Metal -->
        <linearGradient id="gold" x1="0" y1="0" x2="1" y2="1">
            <stop offset="0%" stop-color="#FFF4C9"/>
            <stop offset="25%" stop-color="#D4AF37"/>
            <stop offset="50%" stop-color="#B08D57"/>
            <stop offset="75%" stop-color="#8C6B3B"/>
            <stop offset="100%" stop-color="#6E552F"/>
        </linearGradient>

        <!-- Champagne Metal -->
        <linearGradient id="champagne" x1="0" y1="0" x2="1" y2="1">
            <stop offset="0%" stop-color="#FFFDF5"/>
            <stop offset="50%" stop-color="#F3E6C9"/>
            <stop offset="100%" stop-color="#CFC8BE"/>
        </linearGradient>

        <!-- Dark Gold -->
        <linearGradient id="dark-gold" x1="0" y1="0" x2="1" y2="1">
            <stop offset="0%" stop-color="#8C6B3B"/>
            <stop offset="100%" stop-color="#3E2F1C"/>
        </linearGradient>

        <!-- Black Metal -->
        <linearGradient id="black-metal" x1="0" y1="0" x2="1" y2="1">
            <stop offset="0%" stop-color="#444"/>
            <stop offset="100%" stop-color="#111"/>
        </linearGradient>
    </defs>


    <rect width="2048" height="2048" fill="none"/>

    <circle cx="1024" cy="1024" r="512" fill="none"/>
    <!--circle cx="1024" cy="1024" r="768" fill="#E0E0E0" /-->

    <polygon
            points="
          1024,512
          1467.4050067376326,768
          1467.4050067376326,1280
          1024,1536
          580.5949932623674,1280
          580.5949932623674,768
        "
            fill="none"
    />

    <!-- Top -->

    <polygon
            points="
          1024,614.4
          1290.0430040425796,768
          1024,921.6
          757.9569959574204,768
        "
            fill="none"
    />
    <polygon
            points="
          1024,614.4
          1024,716.8
          1290.0430040425795,870.4
          1290.0430040425795,768
        "
            fill="#E0E0E0"
    />
    <polygon
            points="
          1024,614.4
          1024,716.8
          757.9569959574204,870.4
          757.9569959574204,768
        "
            fill="#1F1F1F"
    />
    <polygon
            points="
          1024,921.6
          1024,819.2
          1112.6810013475265,768
          1112.6810013475265,870.4
        "
            fill="#1F1F1F"
    />
    <polygon
            points="
          1024,921.6
          1024,819.2
          935.3189986524735,768
          935.3189986524735,870.4
        "
            fill="#E0E0E0"
    />
    <polygon
            points="
          1024,1024
          580.5949932623674,768
          1024,512
          1467.4050067376326,768
          1024,1024
          1024,921.6
          757.9569959574204,768
          1024,614.4
          1290.0430040425796,768
          1024,921.6
        "
            fill-rule="evenodd"
            fill="#FEF8E1"
    />
    <polygon
            points="
          1024,716.8
          1112.6810013475265,768
          1024,819.2
          935.3189986524735,768
        "
            fill="#B08D57"
    />

    <!-- Left -->

    <polygon
            points="
          935.3189986524735,1484.8
          935.3189986524735,1280
          580.5949932623674,1075.2
          580.5949932623674,1280
        "
            fill="none"
    />
    <polygon
            points="
          846.637997304947,1433.6
          846.637997304947,1228.8
          935.3189986524735,1177.6
          935.3189986524735,1382.4
        "
            fill="#1F1F1F"
    />
    <polygon
            points="
          580.5949932623674,1177.6
          669.2759946098939,1126.4
          846.637997304947,1228.8
          757.9569959574204,1280
        "
            fill="#FEF8E1"
    />
    <polygon
            points="
          580.5949932623674,1280
          580.5949932623674,1177.6
          757.9569959574204,1280
          757.9569959574204,1177.6
          846.637997304947,1228.8
          846.637997304947,1433.6
        "
            fill="#E0E0E0"
    />
    <polygon
            points="
          669.2759946098939,921.6
          935.3189986524735,1075.2
          935.3189986524735,1177.6
          669.2759946098939,1024
        "
            fill="none"
    />
    <polygon
            points="
          935.3189986524735,1177.6
          669.2759946098939,1024
          757.9569959574204,972.8
          1024,1126.4
        "
            fill="#FEF8E1"
    />
    <polygon
            points="
          669.2759946098939,921.6
          669.2759946098939,1024
          757.9569959574204,972.8
          757.9569959574204,870.4
        "
            fill="#1F1F1F"
    />
    <polygon
            points="
          1024,1024
          1024,1536
          935.3189986524735,1484.8
          935.3189986524735,1280
          580.5949932623674,1075.2
          580.5949932623674,768
          935.3189986524735,972.8
          935.3189986524735,1075.2
          669.2759946098939,921.6
          669.2759946098939,1024
          935.3189986524735,1177.6
          935.3189986524735,972.8
        "
            fill="#E0E0E0"
    />
    <polygon
            points="
          757.9569959574204,1177.6
          757.9569959574204,1075.2
          846.637997304947,1126.4
          846.637997304947,1228.8
        "
            fill="#B08D57"
    />

    <!-- Right -->

    <polygon
            points="
          1467.4050067376326,972.8
          1467.4050067376326,870.4
          1112.6810013475265,1075.2
          1112.6810013475265,1382.4
          1378.7240053901061,1228.8
          1378.7240053901061,1126.4
          1201.362002695053,1228.8
          1201.362002695053,1126.4
        "
            fill="none"
    />
    <polygon
            points="
          1378.7240053901061,1126.4
          1378.7240053901061,1228.8
          1290.0430040425795,1177.6
          1290.0430040425795,1075.2
        "
            fill="#E0E0E0"
    />
    <polygon
            points="
          1024,1331.2
          1112.6810013475265,1382.4
          1378.7240053901061,1228.8
          1290.0430040425795,1177.6
        "
            fill="#FEF8E1"
    />
    <polygon
            points="
          1201.362002695053,1228.8
          1201.362002695053,1126.4
          1112.6810013475265,1075.2
          1112.6810013475265,1177.6
        "
            fill="#E0E0E0"
    />
    <polygon
            points="
          1201.362002695053,1126.4
          1112.6810013475265,1075.2
          1378.7240053901061,921.6
          1467.4050067376326,972.8
        "
            fill="#FEF8E1"
    />
    <polygon
            points="
          1024,1024
          1024,1536
          1467.4050067376326,1280
          1467.4050067376326,972.8
          1201.362002695053,1126.4
          1201.362002695053,1228.8
          1378.7240053901061,1126.4
          1378.7240053901061,1228.8
          1112.6810013475265,1382.4
          1112.6810013475265,1075.2
          1467.4050067376326,870.4
          1467.4050067376326,768
        "
            fill="#1F1F1F"
    />
    <polygon
            points="
          1290.0430040425795,1075.2
          1201.362002695053,1126.4
          1201.362002695053,1228.8
          1290.0430040425795,1177.6
        "
            fill="#B08D57"
    />
</svg>