<svg xmlns="http://www.w3.org/2000/svg" width="2048" height="2048" viewBox="512 512 1024 1024"><path fill="none" d="M0 0h2048v2048H0z"/><circle cx="1024" cy="1024" r="512" fill="none"/><path fill="none" d="m1024 512 443.405 256v512L1024 1536l-443.405-256V768z"/><path fill="none" d="M1024 614.4 1290.043 768 1024 921.6 757.957 768z"/><path fill="#ec8ab1" d="M1024 614.4v102.4l266.043 153.6V768z"/><path fill="#b1cfdf" d="M1024 614.4v102.4L757.957 870.4V768zm0 307.2V819.2l88.681-51.2v102.4z"/><path fill="#ec8ab1" d="M1024 921.6V819.2L935.319 768v102.4z"/><path fill="#e9ceed" fill-rule="evenodd" d="M1024 1024 580.595 768 1024 512l443.405 256zV921.6L757.957 768 1024 614.4 1290.043 768 1024 921.6z"/><path fill="#8567c4" d="m1024 716.8 88.681 51.2L1024 819.2 935.319 768z"/><path fill="none" d="M935.319 1484.8V1280l-354.724-204.8V1280z"/><path fill="#b1cfdf" d="M846.638 1433.6v-204.8l88.681-51.2v204.8z"/><path fill="#e9ceed" d="m580.595 1177.6 88.681-51.2 177.362 102.4-88.681 51.2z"/><path fill="#ec8ab1" d="M580.595 1280v-102.4L757.957 1280v-102.4l88.681 51.2v204.8z"/><path fill="none" d="m669.276 921.6 266.043 153.6v102.4L669.276 1024z"/><path fill="#e9ceed" d="M935.319 1177.6 669.276 1024l88.681-51.2L1024 1126.4z"/><path fill="#b1cfdf" d="M669.276 921.6V1024l88.681-51.2V870.4z"/><path fill="#ec8ab1" d="M1024 1024v512l-88.681-51.2V1280l-354.724-204.8V768l354.724 204.8v102.4L669.276 921.6V1024l266.043 153.6V972.8z"/><path fill="#8567c4" d="M757.957 1177.6v-102.4l88.681 51.2v102.4z"/><path fill="none" d="M1467.405 972.8V870.4l-354.724 204.8v307.2l266.043-153.6v-102.4l-177.362 102.4v-102.4z"/><path fill="#ec8ab1" d="M1378.724 1126.4v102.4l-88.681-51.2v-102.4z"/><path fill="#e9ceed" d="m1024 1331.2 88.681 51.2 266.043-153.6-88.681-51.2z"/><path fill="#ec8ab1" d="M1201.362 1228.8v-102.4l-88.681-51.2v102.4z"/><path fill="#e9ceed" d="m1201.362 1126.4-88.681-51.2 266.043-153.6 88.681 51.2z"/><path fill="#b1cfdf" d="M1024 1024v512l443.405-256V972.8l-266.043 153.6v102.4l177.362-102.4v102.4l-266.043 153.6v-307.2l354.724-204.8V768z"/><path fill="#8567c4" d="m1290.043 1075.2-88.681 51.2v102.4l88.681-51.2z"/></svg>