<svg width="2048" height="2048" viewBox="512 512 1024 1024" xmlns="http://www.w3.org/2000/svg">
    <rect width="2048" height="2048" fill="#00000000"/>

    <circle cx="1024" cy="1024" r="512" fill="#00000000"/>
    <!--circle cx="1024" cy="1024" r="768" fill="#EC8AB1" /-->

    <polygon
            points="
          1024,512
          1467.4050067376326,768
          1467.4050067376326,1280
          1024,1536
          580.5949932623674,1280
          580.5949932623674,768
        "
            fill="#00000000"
    />

    <!-- Top -->

    <polygon
            points="
          1024,614.4
          1290.0430040425796,768
          1024,921.6
          757.9569959574204,768
        "
            fill="#00000000"
    />
    <polygon
            points="
          1024,614.4
          1024,716.8
          1290.0430040425795,870.4
          1290.0430040425795,768
        "
            fill="#E189C5"
    />
    <polygon
            points="
          1024,614.4
          1024,716.8
          757.9569959574204,870.4
          757.9569959574204,768
        "
            fill="#B1CFDF"
    />
    <polygon
            points="
          1024,921.6
          1024,819.2
          1112.6810013475265,768
          1112.6810013475265,870.4
        "
            fill="#B1CFDF"
    />
    <polygon
            points="
          1024,921.6
          1024,819.2
          935.3189986524735,768
          935.3189986524735,870.4
        "
            fill="#E189C5"
    />
    <polygon
            points="
          1024,1024
          580.5949932623674,768
          1024,512
          1467.4050067376326,768
          1024,1024
          1024,921.6
          757.9569959574204,768
          1024,614.4
          1290.0430040425796,768
          1024,921.6
        "
            fill-rule="evenodd"
            fill="#EBDAF6"
    />
    <polygon
            points="
          1024,716.8
          1112.6810013475265,768
          1024,819.2
          935.3189986524735,768
        "
            fill="#8567C4"
    />

    <!-- Left -->

    <polygon
            points="
          935.3189986524735,1484.8
          935.3189986524735,1280
          580.5949932623674,1075.2
          580.5949932623674,1280
        "
            fill="#00000000"
    />
    <polygon
            points="
          846.637997304947,1433.6
          846.637997304947,1228.8
          935.3189986524735,1177.6
          935.3189986524735,1382.4
        "
            fill="#B1CFDF"
    />
    <polygon
            points="
          580.5949932623674,1177.6
          669.2759946098939,1126.4
          846.637997304947,1228.8
          757.9569959574204,1280
        "
            fill="#EBDAF6"
    />
    <polygon
            points="
          580.5949932623674,1280
          580.5949932623674,1177.6
          757.9569959574204,1280
          757.9569959574204,1177.6
          846.637997304947,1228.8
          846.637997304947,1433.6
        "
            fill="#E189C5"
    />
    <polygon
            points="
          669.2759946098939,921.6
          935.3189986524735,1075.2
          935.3189986524735,1177.6
          669.2759946098939,1024
        "
            fill="#00000000"
    />
    <polygon
            points="
          935.3189986524735,1177.6
          669.2759946098939,1024
          757.9569959574204,972.8
          1024,1126.4
        "
            fill="#EBDAF6"
    />
    <polygon
            points="
          669.2759946098939,921.6
          669.2759946098939,1024
          757.9569959574204,972.8
          757.9569959574204,870.4
        "
            fill="#B1CFDF"
    />
    <polygon
            points="
          1024,1024
          1024,1536
          935.3189986524735,1484.8
          935.3189986524735,1280
          580.5949932623674,1075.2
          580.5949932623674,768
          935.3189986524735,972.8
          935.3189986524735,1075.2
          669.2759946098939,921.6
          669.2759946098939,1024
          935.3189986524735,1177.6
          935.3189986524735,972.8
        "
            fill="#E189C5"
    />
    <polygon
            points="
          757.9569959574204,1177.6
          757.9569959574204,1075.2
          846.637997304947,1126.4
          846.637997304947,1228.8
        "
            fill="#8567C4"
    />

    <!-- Right -->

    <polygon
            points="
          1467.4050067376326,972.8
          1467.4050067376326,870.4
          1112.6810013475265,1075.2
          1112.6810013475265,1382.4
          1378.7240053901061,1228.8
          1378.7240053901061,1126.4
          1201.362002695053,1228.8
          1201.362002695053,1126.4
        "
            fill="#00000000"
    />
    <polygon
            points="
          1378.7240053901061,1126.4
          1378.7240053901061,1228.8
          1290.0430040425795,1177.6
          1290.0430040425795,1075.2
        "
            fill="#E189C5"
    />
    <polygon
            points="
          1024,1331.2
          1112.6810013475265,1382.4
          1378.7240053901061,1228.8
          1290.0430040425795,1177.6
        "
            fill="#EBDAF6"
    />
    <polygon
            points="
          1201.362002695053,1228.8
          1201.362002695053,1126.4
          1112.6810013475265,1075.2
          1112.6810013475265,1177.6
        "
            fill="#E189C5"
    />
    <polygon
            points="
          1201.362002695053,1126.4
          1112.6810013475265,1075.2
          1378.7240053901061,921.6
          1467.4050067376326,972.8
        "
            fill="#EBDAF6"
    />
    <polygon
            points="
          1024,1024
          1024,1536
          1467.4050067376326,1280
          1467.4050067376326,972.8
          1201.362002695053,1126.4
          1201.362002695053,1228.8
          1378.7240053901061,1126.4
          1378.7240053901061,1228.8
          1112.6810013475265,1382.4
          1112.6810013475265,1075.2
          1467.4050067376326,870.4
          1467.4050067376326,768
        "
            fill="#B1CFDF"
    />
    <polygon
            points="
          1290.0430040425795,1075.2
          1201.362002695053,1126.4
          1201.362002695053,1228.8
          1290.0430040425795,1177.6
        "
            fill="#8567C4"
    />
</svg>