<svg width="2048" height="2048" viewBox="512 512 1024 1024" xmlns="http://www.w3.org/2000/svg" fill="#000000">
    <defs>
        <!-- Royal -->
        <linearGradient id="royal" x1="1" y1="1" x2="0" y2="0">
            <stop offset="0%" stop-color="#8C6B3B"/>
            <stop offset="25%" stop-color="#A08D57"/>
            <stop offset="50%" stop-color="#B08D57"/>
            <stop offset="75%" stop-color="#C89B41"/>
            <stop offset="100%" stop-color="#D4AF37"/>
        </linearGradient>

        <!-- Antique Metal -->
        <linearGradient id="gold-metal" x1="1" y1="1" x2="0" y2="0">
            <stop offset="0%" stop-color="#C5AB50"/>
            <stop offset="25%" stop-color="#E4D674"/>
            <stop offset="50%" stop-color="#FBF8AE"/>
            <stop offset="75%" stop-color="#F9FADE"/>
            <stop offset="100%" stop-color="#AC933E"/>
        </linearGradient>

        <!-- Fancy Metal -->
        <linearGradient id="fancy-metal" x1="1" y1="1" x2="0" y2="0">
            <stop offset="0%" stop-color="#CC9900"/>
            <stop offset="25%" stop-color="#D4AF37"/>
            <stop offset="50%" stop-color="#DEB82D"/>
            <stop offset="75%" stop-color="#E7CF27"/>
            <stop offset="100%" stop-color="#FFDF00"/>
        </linearGradient>

        <!-- Gold Metal -->
        <linearGradient id="golden-metal" x1="1" y1="1" x2="0" y2="0">
            <stop offset="0%" stop-color="#C18700"/>
            <stop offset="25%" stop-color="#D8A309"/>
            <stop offset="50%" stop-color="#EABF14"/>
            <stop offset="75%" stop-color="#EAD355"/>
            <stop offset="100%" stop-color="#F7F18B"/>
        </linearGradient>

        <!-- Dark Metal -->
        <linearGradient id="dark-metal" x1="1" y1="1" x2="0" y2="0">
            <stop offset="0%" stop-color="#191919"/>
            <stop offset="25%" stop-color="#393939"/>
            <stop offset="50%" stop-color="#4B4B4B"/>
            <stop offset="75%" stop-color="#535353"/>
            <stop offset="100%" stop-color="#5D5D5D"/>
        </linearGradient>

        <!-- Silver Metal -->
        <linearGradient id="silver-metal" x1="1" y1="1" x2="0" y2="0">
            <stop offset="0%" stop-color="#B4B5B8"/>
            <stop offset="25%" stop-color="#C0C0C3"/>
            <stop offset="50%" stop-color="#CBCCCD"/>
            <stop offset="75%" stop-color="#D7D7D8"/>
            <stop offset="100%" stop-color="#E3E3E3"/>
        </linearGradient>

        <!-- Platinum Metal -->
        <linearGradient id="platinum-metal" x1="0" y1="0" x2="1" y2="1">
            <stop offset="0%" stop-color="#CDCDCD"/>
            <stop offset="25%" stop-color="#DADADA"/>
            <stop offset="50%" stop-color="#E6E6E6"/>
            <stop offset="75%" stop-color="#F0F0F0"/>
            <stop offset="100%" stop-color="#F6F6F6"/>
        </linearGradient>

        <!-- Champagne Metal -->
        <linearGradient id="champagne-metal" x1="0" y1="0" x2="1" y2="1">
            <stop offset="0%" stop-color="#FFFDF5"/>
            <stop offset="50%" stop-color="#F3E6C9"/>
            <stop offset="100%" stop-color="#CFC8BE"/>
        </linearGradient>
    </defs>


    <rect width="2048" height="2048" fill="none"/>

    <circle cx="1024" cy="1024" r="512" fill="none"/>
    <!--circle cx="1024" cy="1024" r="768" fill="url(#silver-metal)" /-->

    <polygon
            points="
          1024,512
          1467.4050067376326,768
          1467.4050067376326,1280
          1024,1536
          580.5949932623674,1280
          580.5949932623674,768
        "
            fill="none"
    />

    <!-- Top -->

    <polygon
            points="
          1024,614.4
          1290.0430040425796,768
          1024,921.6
          757.9569959574204,768
        "
            fill="none"
    />
    <polygon
            points="
          1290.0430040425795,665.6
          1201.362002695053,716.8
          1201.362002695053,819.2
          1290.0430040425795,768
        "
            fill="url(#dark-metal)"
    />
    <polygon
            points="
          1201.362002695053,819.2
          1201.362002695053,716.8
          1112.6810013475265,665.6
          1112.6810013475265,768
        "
            fill="url(#silver-metal)"
    />
    <polygon
            points="
          1201.362002695053,716.8
          1112.6810013475265,665.6
          1201.362002695053,614.4
          1290.0430040425795,665.6
        "
            fill="url(#gold-metal)"
    />
    <polygon
            points="
          846.637997304947,921.6
          935.3189986524735,870.4
          846.637997304947,819.2
          757.9569959574204,870.4
        "
            fill="url(#gold-metal)"
    />
    <polygon
            points="
          1112.6810013475265,563.2
          1112.6810013475265,665.6
          757.9569959574204,870.4
          757.9569959574204,1280
          669.2759946098939,1331.2
          669.2759946098939,819.2
        "
            fill="url(#dark-metal)"
    />
    <polygon
            points="
          846.637997304947,716.8
          846.637997304947,819.2
          1112.6810013475265,972.8
          1112.6810013475265,870.4
        "
            fill="url(#silver-metal)"
    />
    <polygon
            points="
          1024,1024
          1467.4050067376326,768
          1378.7240053901061,716.8
          1201.362002695053,819.2
          935.3189986524735,665.6
          1112.6810013475265,563.2
          1024,512
          580.5949932623674,768
          669.2759946098939,819.2
          846.637997304947,716.8
          1112.6810013475265,870.4
          935.3189986524735,972.8
        "
            fill="url(#gold-metal)"
    />
    <polygon
            points="
          1024,716.8
          1112.6810013475265,768
          1024,819.2
          935.3189986524735,768
        "
            fill="url(#royal)"
    />

    <!-- Left -->

    <polygon
            points="
          935.3189986524735,1484.8
          935.3189986524735,1280
          580.5949932623674,1075.2
          580.5949932623674,1280
        "
            fill="none"
    />
    <polygon
            points="
          757.9569959574204,972.8
          757.9569959574204,870.4
          846.637997304947,921.6
          846.637997304947,1024
        "
            fill="url(#silver-metal)"
    />
    <polygon
            points="
          757.9569959574204,1382.4
          757.9569959574204,1280
          846.637997304947,1331.2
          846.637997304947,1433.6
        "
            fill="url(#silver-metal)"
    />
    <polygon
            points="
          846.637997304947,1433.6
          846.637997304947,1331.2
          935.3189986524735,1280
          935.3189986524735,1382.4
        "
            fill="url(#dark-metal)"
    />
    <polygon
            points="
          669.2759946098939,1126.4
          669.2759946098939,1331.2
          757.9569959574204,1280
          757.9569959574204,1177.6
        "
            fill="url(#dark-metal)"
    />
    <polygon
            points="
          846.637997304947,1024
          846.637997304947,921.6
          935.3189986524735,870.4
          935.3189986524735,972.8
        "
            fill="url(#dark-metal)"
    />
    <polygon
            points="
          669.2759946098939,921.6
          935.3189986524735,1075.2
          935.3189986524735,1177.6
          669.2759946098939,1024
        "
            fill="none"
    />
    <polygon
            points="
          846.637997304947,1331.2
          935.3189986524735,1280
          846.637997304947,1228.8
          757.9569959574204,1280
        "
            fill="url(#gold-metal)"
    />
    <polygon
            points="
          935.3189986524735,1177.6
          669.2759946098939,1024
          757.9569959574204,972.8
          1024,1126.4
        "
            fill="url(#gold-metal)"
    />
    <polygon
            points="
          1024,1024
          1024,1536
          935.3189986524735,1484.8
          935.3189986524735,1280
          669.2759946098939,1126.4
          669.2759946098939,1331.2
          580.5949932623674,1280
          580.5949932623674,768
          669.2759946098939,819.2
          669.2759946098939,1024
          935.3189986524735,1177.6
          935.3189986524735,972.8
        "
            fill="url(#silver-metal)"
    />
    <polygon
            points="
          757.9569959574204,1177.6
          757.9569959574204,1075.2
          846.637997304947,1126.4
          846.637997304947,1228.8
        "
            fill="url(#royal)"
    />

    <!-- Right -->

    <polygon
            points="
          1467.4050067376326,972.8
          1467.4050067376326,870.4
          1112.6810013475265,1075.2
          1112.6810013475265,1382.4
          1378.7240053901061,1228.8
          1378.7240053901061,1126.4
          1201.362002695053,1228.8
          1201.362002695053,1126.4
        "
            fill="none"
    />
    <polygon
            points="
          1378.7240053901061,1024
          1378.7240053901061,1126.4
          1290.0430040425795,1075.2
          1290.0430040425795,972.8
        "
            fill="url(#silver-metal)"
    />
    <polygon
            points="
          1467.4050067376326,972.8
          1378.7240053901061,921.6
          1290.0430040425796,972.8
          1378.7240053901061,1024
        "
            fill="url(#gold-metal)"
    />
    <polygon
            points="
          1467.4050067376326,1177.6
          1378.7240053901061,1126.4
          1024,1331.2
          1112.6810013475265,1382.4
        "
            fill="url(#gold-metal)"
    />
    <polygon
            points="
          1201.362002695053,1228.8
          1201.362002695053,1126.4
          1112.6810013475265,1075.2
          1112.6810013475265,1177.6
        "
            fill="url(#silver-metal)"
    />
    <polygon
            points="
          1201.362002695053,1126.4
          1112.6810013475265,1075.2
          1201.362002695053,1024
          1290.0430040425795,1075.2
        "
            fill="url(#gold-metal)"
    />
    <polygon
            points="
          1378.7240053901061,1024
          1378.7240053901061,1126.4
          1467.4050067376326,1075.2
          1467.4050067376326,972.8
        "
            fill="url(#dark-metal)"
    />
    <polygon
            points="
          1024,1024
          1024,1536
          1467.4050067376326,1280
          1467.4050067376326,1177.6
          1378.7240053901061,1228.8
          1112.6810013475265,1382.4
          1112.6810013475265,1075.2
          1467.4050067376326,870.4
          1467.4050067376326,768
        "
            fill="url(#dark-metal)"
    />
    <polygon
            points="
          1290.0430040425795,1075.2
          1201.362002695053,1126.4
          1201.362002695053,1228.8
          1290.0430040425795,1177.6
        "
            fill="url(#royal)"
    />
</svg>